<?xml version="1.0" encoding="UTF-8" standalone="no"?><!DOCTYPE svg PUBLIC "-//W3C//DTD SVG 1.1//EN" "http://www.w3.org/Graphics/SVG/1.1/DTD/svg11.dtd"><svg width="100%" height="100%" viewBox="0 0 267 267" version="1.1" xmlns="http://www.w3.org/2000/svg" xmlns:xlink="http://www.w3.org/1999/xlink" xml:space="preserve" xmlns:serif="http://www.serif.com/" style="fill-rule:evenodd;clip-rule:evenodd;stroke-linejoin:round;stroke-miterlimit:2;"><path d="M278.551,-2.653l1.075,277.544l-293.104,1.135l-1.076,-277.543l293.105,-1.136Z" style="fill:#fff;"/><g><path d="M69.649,115.864c-0.249,-1.203 -0.385,-2.443 -0.385,-3.711c-0,-5.641 2.581,-10.676 6.614,-14.005c6.245,-6.639 6.902,-10.472 7.094,-15.852c0.217,-6.191 -2.004,-12.42 -6.509,-17.94c-4.225,-3.32 -6.943,-8.486 -6.943,-14.267c0,-10.005 8.121,-18.136 18.126,-18.136c10.013,0 18.134,8.131 18.134,18.136c-0,5.837 -2.766,11.04 -7.063,14.351l0.048,0.009c-10.71,10.9 -10.005,21.773 -0.633,33.093c3.928,2.89 6.654,7.329 7.263,12.42c0.257,1.203 0.385,2.443 0.385,3.72c-0,5.838 -2.766,11.041 -7.063,14.351l0.048,0.009c-10.662,10.854 -10.013,21.68 -0.753,32.944c4.289,2.983 6.942,7.571 7.6,12.466l0.024,-0.037c4.056,14.602 13.692,19.47 27.994,17.157c4.682,-2.144 9.909,-2.126 14.422,-0.27l-0.016,-0.047c14.711,3.805 23.754,-2.154 28.884,-15.768c0.353,-5.128 2.838,-9.669 6.574,-12.746c6.245,-6.639 6.903,-10.481 7.095,-15.852c0.2,-5.706 -1.676,-11.441 -5.491,-16.635c-0.113,-0.056 -0.225,-0.121 -0.337,-0.186c-4.882,-2.816 -7.961,-7.572 -8.819,-12.728c-2.629,-8.728 -5.619,-11.218 -10.189,-14.071c-5.243,-3.282 -11.752,-4.476 -18.783,-3.338c-4.994,2.005 -10.823,1.781 -15.833,-1.11c-8.666,-5.007 -11.64,-16.103 -6.638,-24.765c5.002,-8.672 16.106,-11.647 24.772,-6.64c5.058,2.919 8.177,7.917 8.898,13.297l0.024,-0.046c4.089,14.732 13.853,19.553 28.34,17.101c3.695,-1.613 7.88,-1.996 11.88,-0.942c8.506,1.492 14.984,8.924 14.984,17.856c-0,5.838 -2.774,11.041 -7.063,14.351l0.048,0.009c-10.71,10.9 -10.013,21.763 -0.641,33.083c4.401,3.245 7.287,8.411 7.399,14.258c0.305,6.564 -2.974,13.063 -9.051,16.569c-4.874,2.816 -10.526,3.105 -15.424,1.268c-8.875,-2.079 -12.53,-0.736 -17.284,1.791c-5.331,2.834 -9.54,7.702 -12.097,14.136c-0.265,2.405 -1.027,4.802 -2.317,7.03c-4.674,8.103 -14.687,11.227 -23.048,7.507c-3.439,-1.492 -6.446,-4.057 -8.466,-7.553c-1.235,-2.145 -1.988,-4.429 -2.285,-6.742c-2.573,-8.159 -5.531,-10.593 -9.973,-13.371c-5.243,-3.283 -11.752,-4.476 -18.783,-3.338c-4.649,1.864 -10.013,1.799 -14.775,-0.551c-6.124,-2.909 -10.373,-9.156 -10.373,-16.392c-0,-5.632 2.581,-10.667 6.614,-13.996c6.245,-6.639 6.902,-10.481 7.094,-15.852c0.217,-6.191 -2.004,-12.42 -6.509,-17.94c-3.688,-2.9 -6.221,-7.189 -6.814,-12.085Zm70.651,10.826c10.005,0 18.126,8.131 18.126,18.136c-0,10.005 -8.121,18.127 -18.126,18.127c-10.005,0 -18.134,-8.122 -18.134,-18.127c0,-10.005 8.129,-18.136 18.134,-18.136Z" style="fill:url(#_Linear1);fill-rule:nonzero;"/></g><defs><linearGradient id="_Linear1" x1="0" y1="0" x2="1" y2="0" gradientUnits="userSpaceOnUse" gradientTransform="matrix(144.126,0,0,167.637,69.2677,128.599)"><stop offset="0" style="stop-color:#ff2f2f;stop-opacity:1"/><stop offset="1" style="stop-color:#0060ff;stop-opacity:1"/></linearGradient></defs></svg>