<?xml version="1.0" encoding="UTF-8" standalone="no"?><!DOCTYPE svg PUBLIC "-//W3C//DTD SVG 1.1//EN" "http://www.w3.org/Graphics/SVG/1.1/DTD/svg11.dtd"><svg width="100%" height="100%" viewBox="0 0 3050 3050" version="1.1" xmlns="http://www.w3.org/2000/svg" xmlns:xlink="http://www.w3.org/1999/xlink" xml:space="preserve" xmlns:serif="http://www.serif.com/" style="fill-rule:evenodd;clip-rule:evenodd;stroke-linejoin:round;stroke-miterlimit:2;"><rect x="-34.548" y="-23.075" width="3123.89" height="3099.07" style="fill:#fff;"/><path d="M1335.52,2569.1c1.551,-1.551 -68.335,-1.551 -65.232,-1.551l372.737,-0c9.319,-3.107 18.639,-10.872 18.639,-21.743c0,-10.871 -7.768,-20.191 -18.639,-21.743l-302.847,0c-54.357,0 -97.842,-45.04 -97.842,-99.397c-0,-48.144 35.72,-88.523 82.312,-96.291c3.103,-1.551 -21.742,-1.551 -20.191,-1.551l346.332,-0c10.875,-1.552 18.64,-10.872 18.64,-21.743c-0,-12.426 -10.871,-21.743 -23.298,-21.743c-124.243,0 -250.041,3.107 -375.843,3.107c-24.846,-0 -41.93,-26.404 -48.144,-46.592c-32.614,-96.291 -52.805,-223.644 -124.246,-295.082c-187.92,-187.923 -256.255,-459.708 -145.986,-708.201c102.5,-231.405 327.696,-372.736 580.847,-374.288c521.829,-4.658 821.57,602.59 509.403,1015.71c24.849,32.614 38.827,72.993 38.827,114.926c0,100.949 -82.312,184.814 -183.261,184.814c-102.501,-0 -184.814,-83.865 -184.814,-184.814c0,-102.503 82.313,-184.816 184.814,-184.816c29.507,-0 57.463,7.768 82.312,20.191c271.788,-361.865 7.765,-891.459 -445.729,-886.801c-222.089,1.555 -419.329,124.247 -510.958,327.696c-96.291,217.431 -35.721,455.049 130.457,619.675c86.971,86.971 102.503,203.453 139.776,316.825l-0,1.555l352.545,-0c54.357,-0 99.397,43.485 99.397,97.842c0,48.144 -35.72,90.078 -82.312,97.842l-52.806,0l45.041,0l-318.38,0c-10.871,3.107 -18.636,12.427 -18.636,21.743c0,10.871 7.765,20.191 18.636,21.743l301.295,-0c54.357,-0 99.398,45.04 99.398,99.397c-0,48.144 -35.721,88.526 -83.868,96.291c-1.552,1.551 41.934,1.551 38.827,1.551l-346.332,0c-9.32,1.555 -17.085,10.872 -17.085,21.743c0,12.426 9.32,21.743 21.743,21.743c32.614,-0 113.375,-1.552 145.99,-0c319.931,23.298 563.763,-85.416 795.168,-309.06c209.666,-203.449 327.696,-489.215 327.696,-779.639c-0,-107.162 -15.53,-211.217 -45.037,-310.611l-1.555,-0c-38.824,-133.567 -104.056,-259.365 -191.027,-369.63l-3.106,-0c-132.008,-167.732 -312.167,-295.086 -520.278,-361.865l0,-4.662l-1.551,3.107c-52.806,-17.082 -107.162,-29.508 -163.071,-37.273c-4.661,17.085 -12.426,34.166 -23.298,51.251c-57.463,83.867 -170.835,107.162 -256.254,51.253c-35.721,-24.849 -62.125,-60.57 -74.548,-100.952c-517.171,86.974 -911.65,537.362 -911.65,1079.38c-0,138.225 26.401,276.446 77.654,405.351c21.743,-10.872 46.592,-15.53 71.442,-15.53c102.5,0 184.813,82.313 184.813,184.814c-0,100.948 -82.313,183.261 -184.813,183.261c-100.953,0 -183.265,-82.313 -183.265,-183.261c-0,-46.593 15.533,-90.078 46.592,-124.244c-59.015,-142.882 -90.078,-295.085 -90.078,-450.391c0,-580.847 423.987,-1063.85 979.985,-1155.48c0,-3.106 1.555,-7.764 1.555,-10.871l3.107,-0c4.658,-23.294 13.978,-46.592 27.952,-68.335c55.912,-83.864 170.839,-107.162 256.258,-51.25c45.037,31.062 72.993,77.655 79.206,127.35c66.78,9.32 132.012,26.404 195.685,46.592l0,1.555c119.588,40.379 231.409,99.394 330.806,173.942l0,-1.552c108.714,82.313 200.343,178.604 273.339,288.869l1.552,-0c124.247,186.368 195.688,408.457 195.688,649.182c-0,368.079 -172.39,712.859 -467.476,936.5c-318.376,218.982 -503.193,234.512 -877.481,228.302c-54.357,-0 -99.397,-43.489 -99.397,-97.846c-0,-48.144 35.721,-90.077 83.868,-96.291Zm284.21,-2060.92l0,-1.552c1.552,-1.552 1.552,-3.107 1.552,-4.658l1.555,-1.555l-0,-4.658l1.551,-1.555l0,-3.104l1.555,-3.106l0,-7.765l1.552,-1.555l-0,-24.849l-1.552,-1.552l0,-7.765l-1.555,-3.106l0,-3.107l-1.551,-1.555l-0,-4.658l-1.555,-0l-0,-1.552c-7.765,-21.742 -21.743,-41.933 -43.486,-55.911c-49.698,-34.166 -119.585,-20.188 -153.754,31.062c-4.658,7.765 -9.316,17.085 -12.423,26.401l0,3.107l-1.555,-0l0,4.658l-1.551,-0l-0,7.768l-1.552,-0l0,35.717l1.552,1.555l-0,6.213l1.551,1.552l0,4.658l1.555,1.555l0,3.107l1.552,1.551l-0,3.107l1.555,1.552c7.765,20.191 21.743,37.275 40.379,49.698c51.25,34.169 119.585,20.191 153.754,-29.507c4.658,-7.765 7.765,-13.978 10.871,-20.191Zm363.417,1413.29c-10.871,-10.871 -23.294,-20.191 -35.721,-27.956c-15.529,-7.765 -32.614,-10.871 -49.698,-10.871c-60.57,-0 -110.266,49.698 -110.266,110.268c0,60.57 48.144,110.269 110.266,110.269c60.57,0 110.268,-49.699 110.268,-110.269c0,-26.4 -9.319,-51.25 -24.849,-71.441Zm-1405.52,361.865c62.121,0 110.265,-49.698 110.265,-110.268c-0,-62.122 -48.144,-111.821 -110.265,-111.821c-60.57,0 -110.269,49.699 -110.269,111.821c-0,60.57 49.699,110.268 110.269,110.268Z"/></svg>