<?xml version="1.0" encoding="UTF-8" standalone="no"?><!DOCTYPE svg PUBLIC "-//W3C//DTD SVG 1.1//EN" "http://www.w3.org/Graphics/SVG/1.1/DTD/svg11.dtd"><svg width="100%" height="100%" viewBox="0 0 2134 2134" version="1.1" xmlns="http://www.w3.org/2000/svg" xmlns:xlink="http://www.w3.org/1999/xlink" xml:space="preserve" xmlns:serif="http://www.serif.com/" style="fill-rule:evenodd;clip-rule:evenodd;stroke-linejoin:round;stroke-miterlimit:2;"><rect x="-55.237" y="-25.903" width="2248.51" height="2179.83" style="fill:#fff;"/><g id="ink_ext_XXXXXX"><g><g><path d="M799.333,1516.73c-0,-88.12 -12.697,-127.743 -79.999,-165.838c-65.925,-37.25 -394.862,-156.918 -445.96,-216.729c-90.195,-105.776 2.692,-247.73 108.878,-238.605c56.298,4.829 93.207,37.387 127.515,71.878c27.282,27.465 168.187,188.01 211.962,230.393c34.696,33.555 74.707,51.69 124.458,59.036c47.424,7.014 87.937,-3.573 122.93,-25.366c58.533,-36.521 101.601,-104.476 135.795,-173.89c38.779,-78.745 100.438,-126.283 173,-120.489c121.835,9.738 167.115,127.879 133.697,216.296c-13.454,35.562 -71.559,88.439 -120.489,104.635c-41.699,13.794 -205.803,71.559 -229.481,81.116c-88.918,35.883 -108.582,73.202 -108.582,177.586c0,44.482 46.809,166.932 46.809,217.893c0,90.378 -45.85,149.322 -121.15,149.322c-74.547,-0 -126.329,-59.127 -126.329,-149.254c0,-52.42 46.832,-173.456 46.832,-217.916" style="fill:#231f20;fill-rule:nonzero;"/><path d="M1334.03,616.601c-0,88.12 12.706,127.743 79.976,165.815c65.947,37.251 394.862,156.918 445.959,216.752c90.196,105.776 -2.71,247.73 -108.923,238.606c-56.321,-4.841 -93.207,-37.411 -127.492,-71.901c-27.305,-27.442 -168.187,-188.01 -211.939,-230.394c-34.719,-33.555 -74.753,-51.69 -124.481,-59.012c-47.425,-7.04 -87.937,3.545 -122.93,25.366c-58.533,36.543 -101.601,104.475 -135.795,173.867c-38.756,78.767 -100.438,126.283 -173,120.489c-121.835,-9.713 -167.138,-127.857 -133.697,-216.296c13.466,-35.54 71.559,-88.416 120.489,-104.612c41.676,-13.785 205.826,-71.536 229.481,-81.094c88.918,-35.928 108.558,-73.224 108.558,-177.608c0,-44.482 -46.808,-166.933 -46.808,-217.916c-0,-90.355 45.85,-149.299 121.15,-149.299c74.547,-0 126.329,59.103 126.329,149.253c-0,52.42 -46.832,173.434 -46.832,217.916" style="fill:#1a80b9;fill-rule:nonzero;"/></g></g></g></svg>